<?xml version="1.0" encoding="iso-8859-1"?>
<!-- Generator: Adobe Illustrator 24.0.2, SVG Export Plug-In . SVG Version: 6.00 Build 0)  -->
<svg version="1.1" id="Layer_1" xmlns="http://www.w3.org/2000/svg" xmlns:xlink="http://www.w3.org/1999/xlink" x="0px" y="0px"
	 viewBox="0 0 48 48" style="enable-background:new 0 0 48 48;" xml:space="preserve">
<linearGradient id="SVGID_1_" gradientUnits="userSpaceOnUse" x1="17.1512" y1="8.4977" x2="29.9956" y2="37.5709">
	<stop  offset="0" style="stop-color:#F09701"/>
	<stop  offset="1" style="stop-color:#E36001"/>
</linearGradient>
<path style="fill:url(#SVGID_1_);" d="M8.108,18.006C10.534,11.579,16.724,7,24,7c7.276,0,13.466,4.579,15.892,11.006
	C36.653,14.6,30.757,12.313,24,12.313C17.243,12.313,11.347,14.6,8.108,18.006z M24,35.688c-6.757,0-12.653-2.287-15.892-5.693
	C10.534,36.421,16.724,41,24,41c7.276,0,13.466-4.579,15.892-11.006C36.653,33.4,30.757,35.688,24,35.688z"/>
<linearGradient id="SVGID_2_" gradientUnits="userSpaceOnUse" x1="1.3195" y1="44.6506" x2="25.6714" y2="1.0592">
	<stop  offset="0" style="stop-color:#A1AAB3"/>
	<stop  offset="1" style="stop-color:#8F979E"/>
</linearGradient>
<path style="fill:url(#SVGID_2_);" d="M39.512,4.744c0,1.515-1.228,2.744-2.744,2.744s-2.744-1.228-2.744-2.744S35.253,2,36.768,2
	S39.512,3.228,39.512,4.744z M10.976,40.415c-1.818,0-3.293,1.474-3.293,3.293c0,1.818,1.474,3.293,3.293,3.293
	s3.293-1.474,3.293-3.293C14.268,41.889,12.794,40.415,10.976,40.415z M7.683,6.39c-1.212,0-2.195,0.983-2.195,2.195
	s0.983,2.195,2.195,2.195s2.195-0.983,2.195-2.195S8.895,6.39,7.683,6.39z"/>
</svg>